<svg fill="#e61414" viewBox="0 0 256.00 256.00" id="Flat" xmlns="http://www.w3.org/2000/svg" stroke="#e61414" stroke-width="7.68"><g id="SVGRepo_bgCarrier" stroke-width="0"></g><g id="SVGRepo_tracerCarrier" stroke-linecap="round" stroke-linejoin="round"></g><g id="SVGRepo_iconCarrier"> <path d="M168,96v64a7.99977,7.99977,0,0,1-8,8H96a7.99977,7.99977,0,0,1-8-8V96a7.99977,7.99977,0,0,1,8-8h64A7.99977,7.99977,0,0,1,168,96Zm56-48V208a16.01833,16.01833,0,0,1-16,16H48a16.01833,16.01833,0,0,1-16-16V48A16.01833,16.01833,0,0,1,48,32H208A16.01833,16.01833,0,0,1,224,48ZM208.01025,207.99953,208,48H48V208H208Z"></path> </g></svg>