<svg width="230px" height="230px" viewBox="0 0 512 512" xmlns="http://www.w3.org/2000/svg" fill="#b8165c"><g id="SVGRepo_bgCarrier" stroke-width="0"></g><g id="SVGRepo_tracerCarrier" stroke-linecap="round" stroke-linejoin="round"></g><g id="SVGRepo_iconCarrier"> <path fill="var(--ci-primary-color, #b8165c)" d="M432,64H16V384H432ZM400,352H48V96H400Z" class="ci-primary"></path> <polygon fill="var(--ci-primary-color, #b8165c)" points="464 144 464 416 96 416 96 448 496 448 496 144 464 144" class="ci-primary"></polygon> <path fill="var(--ci-primary-color, #b8165c)" d="M224,302.46c39.7,0,72-35.137,72-78.326s-32.3-78.326-72-78.326-72,35.136-72,78.326S184.3,302.46,224,302.46Zm0-124.652c22.056,0,40,20.782,40,46.326s-17.944,46.326-40,46.326-40-20.782-40-46.326S201.944,177.808,224,177.808Z" class="ci-primary"></path> <rect width="32" height="176" x="80" y="136" fill="var(--ci-primary-color, #b8165c)" class="ci-primary"></rect> <rect width="32" height="176" x="336" y="136" fill="var(--ci-primary-color, #b8165c)" class="ci-primary"></rect> </g></svg>